<svg xmlns="http://www.w3.org/2000/svg" width="221" height="38" fill="none" viewBox="0 0 221 38">
  <path fill="#000" d="M11.296 23.189C4.832 23.189 0 18.005 0 11.605 0 5.237 4.832.053 10.816.053c3.872 0 7.264 2.208 9.152 5.44.128.192.032.352-.16.416l-3.36 1.024c-.16.064-.288 0-.416-.16C14.848 5.14 12.928 4.02 10.88 4.02c-3.648 0-6.688 3.584-6.688 7.616 0 4.064 3.04 7.616 7.232 7.616 3.712 0 5.536-2.112 6.208-4.128.064-.192-.064-.288-.224-.288H11.36c-.192 0-.32-.128-.32-.32v-3.232c0-.192.128-.32.32-.32h8.672c1.888 0 1.504.064 1.504 4.416 0 3.36-4.416 7.808-10.24 7.808M30.028 23.22c-4.672 0-8.16-3.68-8.16-8.415 0-4.736 3.488-8.416 8.16-8.416 4.703 0 8.16 3.68 8.16 8.416s-3.457 8.416-8.16 8.416m0-3.807c2.464 0 4.288-2.112 4.288-4.576 0-2.432-1.825-4.544-4.289-4.544s-4.288 2.176-4.288 4.544c0 2.464 1.889 4.576 4.288 4.576M46.934 23.22c-4.672 0-8.16-3.68-8.16-8.415 0-4.736 3.488-8.416 8.16-8.416 4.704 0 8.16 3.68 8.16 8.416s-3.456 8.416-8.16 8.416m0-3.807c2.464 0 4.288-2.112 4.288-4.576 0-2.432-1.824-4.544-4.288-4.544s-4.288 2.176-4.288 4.544c0 2.464 1.888 4.576 4.288 4.576M63.424 23.06c-4.736 0-7.744-3.68-7.744-8.447 0-4.736 3.008-8.192 7.744-8.192 1.76 0 3.36.576 4.576 1.536.192.128.32.032.32-.16V.757c0-.192.128-.32.32-.32h3.584c.192 0 .32.128.32.32v21.728c0 .192-.128.32-.32.32H68.64c-.192 0-.32-.128-.32-.32v-.928c0-.224-.128-.288-.288-.16-1.248 1.024-2.816 1.664-4.608 1.664m.416-3.84c2.496 0 4.48-1.823 4.48-4.543 0-2.752-1.984-4.512-4.48-4.512-2.464 0-4.192 1.76-4.192 4.512 0 2.72 1.76 4.544 4.192 4.544M89.364.789l.352 3.808c.032.192-.096.288-.288.192-2.56-1.28-5.696-.8-5.696 1.44 0 1.92 4.383 4.64 6.272 7.424.992 1.44 1.375 2.528 1.375 4.128 0 3.712-4.16 7.296-10.912 4.448-.127-.064-.192-.128-.224-.288l-.575-3.776c-.033-.224.095-.288.287-.16 3.52 2.24 6.849 1.632 6.752-.64-.063-1.216-1.6-2.496-3.295-4.16-.993-.96-4.225-3.168-4.225-7.04 0-5.056 5.088-7.232 9.953-5.664.127.032.224.16.224.288M93.337 22.805c-.193 0-.32-.128-.32-.32V7.125c0-.192.127-.32.32-.32h3.584c.191 0 .32.128.32.32v15.36c0 .192-.129.32-.32.32zm1.791-17.536a2.5 2.5 0 0 1-2.496-2.496c0-1.408 1.12-2.528 2.496-2.528 1.409 0 2.496 1.12 2.496 2.528a2.5 2.5 0 0 1-2.495 2.496M105.194 2.005c.192 0 .32.128.32.32v4.224c0 .16.096.256.256.256h2.656c.192 0 .32.128.32.32v2.784c0 .192-.128.32-.32.32h-2.656c-.16 0-.256.096-.256.256v12c0 .192-.128.32-.32.32h-3.456c-.192 0-.32-.128-.32-.32v-12c0-.16-.096-.256-.256-.256H98.25c-.192 0-.32-.128-.32-.32V7.125c0-.192.128-.32.32-.32h2.912c.16 0 .256-.096.256-.256V2.325c0-.192.128-.32.32-.32zM117.159 23.189c-4.64 0-8.448-3.808-8.448-8.544 0-4.704 3.488-8.352 8.096-8.352 3.904 0 7.168 2.88 7.456 6.336.032.16-.064.288-.192.384l-9.408 5.504c-.16.096-.192.256-.032.384.768.672 1.504.736 2.368.736 1.6 0 2.88-.704 3.744-2.08q.144-.24.384-.192l2.944.48c.192.032.32.128.288.256-.576 2.336-3.104 5.088-7.2 5.088m2.496-11.264c.128-.096.192-.192.096-.352-.544-.96-1.696-1.568-3.168-1.44-2.528.224-4.352 2.752-3.744 5.472.032.192.16.224.32.128zM140.582.789l.352 3.808c.032.192-.096.288-.288.192-2.56-1.28-5.696-.8-5.696 1.44 0 1.92 4.384 4.64 6.272 7.424.992 1.44 1.376 2.528 1.376 4.128 0 3.712-4.16 7.296-10.912 4.448-.128-.064-.192-.128-.224-.288l-.576-3.776c-.032-.224.096-.288.288-.16 3.52 2.24 6.848 1.632 6.752-.64-.064-1.216-1.6-2.496-3.296-4.16-.992-.96-4.224-3.168-4.224-7.04 0-5.056 5.088-7.232 9.952-5.664.128.032.224.16.224.288M149.507 2.005c.192 0 .32.128.32.32v4.224c0 .16.096.256.256.256h2.655c.192 0 .321.128.321.32v2.784c0 .192-.129.32-.321.32h-2.655c-.16 0-.256.096-.256.256v12c0 .192-.128.32-.32.32h-3.456c-.192 0-.321-.128-.321-.32v-12c0-.16-.095-.256-.255-.256h-2.913c-.192 0-.32-.128-.32-.32V7.125c0-.192.128-.32.32-.32h2.913c.16 0 .255-.096.255-.256V2.325c0-.192.129-.32.321-.32zM157.88 6.805c.192 0 .32.096.32.32l.032 7.68c0 3.04 1.248 4.096 2.688 4.096 2.24 0 3.168-1.696 3.168-4.288V7.125c0-.192.128-.32.32-.32h3.584c.192 0 .32.128.32.32v15.36c0 .192-.128.32-.32.32h-3.584c-.192 0-.32-.128-.32-.32v-.992c0-.224-.16-.288-.32-.128-.96.896-2.144 1.472-3.488 1.504-3.648.064-6.272-2.848-6.272-7.296l-.032-8.448c0-.192.128-.32.32-.32zM176.986 23.06c-4.736 0-7.744-3.68-7.744-8.447 0-4.736 3.008-8.192 7.744-8.192 1.76 0 3.36.576 4.576 1.536.192.128.321.032.321-.16V.757c0-.192.127-.32.319-.32h3.584c.193 0 .321.128.321.32v21.728c0 .192-.128.32-.321.32h-3.584c-.192 0-.319-.128-.319-.32v-.928c0-.224-.129-.288-.289-.16-1.248 1.024-2.816 1.664-4.608 1.664m.416-3.84c2.496 0 4.481-1.823 4.481-4.543 0-2.752-1.985-4.512-4.481-4.512-2.464 0-4.192 1.76-4.192 4.512 0 2.72 1.76 4.544 4.192 4.544M188.368 22.805c-.192 0-.32-.128-.32-.32V7.125c0-.192.128-.32.32-.32h3.584c.192 0 .32.128.32.32v15.36c0 .192-.128.32-.32.32zm1.792-17.536a2.5 2.5 0 0 1-2.496-2.496c0-1.408 1.12-2.528 2.496-2.528 1.408 0 2.496 1.12 2.496 2.528a2.5 2.5 0 0 1-2.496 2.496M201.746 23.22c-4.672 0-8.16-3.68-8.16-8.415 0-4.736 3.488-8.416 8.16-8.416 4.704 0 8.16 3.68 8.16 8.416s-3.456 8.416-8.16 8.416m0-3.807c2.464 0 4.288-2.112 4.288-4.576 0-2.432-1.824-4.544-4.288-4.544s-4.288 2.176-4.288 4.544c0 2.464 1.888 4.576 4.288 4.576M218.724 7.317l.288 3.264c.032.224-.096.288-.288.192-2.016-.928-4.352-1.152-4.352.416 0 2.336 6.304 3.456 6.304 7.968 0 3.296-3.616 5.376-9.088 3.36-.128-.032-.192-.096-.224-.256l-.448-3.424c-.032-.192.096-.288.288-.16 2.816 1.632 5.28 1.856 5.248.256-.064-1.952-6.272-3.648-6.272-8.128 0-3.584 4.096-5.472 8.32-3.776.128.064.224.128.224.288"/>
  <path fill="#050505" d="M53.9 25.805c-.807 6.741-7.438 12-15.5 12l-.402-.005c-7.88-.171-14.305-5.366-15.099-11.995h4.055c.805 4.149 5.154 8 11.446 8s10.64-3.851 11.446-8z"/>
</svg>
